<svg id="Layer_1" xmlns="http://www.w3.org/2000/svg" width="30" height="30" viewBox="0 0 30 30"><style>.st0{fill:#959595}</style><path class="st0" d="M17 11H1v13h16V11zm-4 1v2h-2v-2h2zm-6 5H5v-2h2v2zm1-2h2v2H8v-2zm-1 3v2H5v-2h2zm1 0h2v2H8v-2zm3 0h2v2h-2v-2zm0-1v-2h2v2h-2zm-1-5v2H8v-2h2zm-3 0v2H5v-2h2zm-5 0h2v2H2v-2zm0 3h2v2H2v-2zm0 3h2v2H2v-2zm0 5v-2h2v2H2zm3 0v-2h2v2H5zm3 0v-2h2v2H8zm3 0v-2h2v2h-2zm5 0h-2v-2h2v2zm0-3h-2v-2h2v2zm0-3h-2v-2h2v2zm0-3h-2v-2h2v2z"/><path class="st0" d="M20 1H7v9h2V3h10v8h8v16H9v-2H7v4h22V10z"/></svg>