<svg id="Layer_1" xmlns="http://www.w3.org/2000/svg" width="20" height="20" viewBox="0 0 20 20"><style>.st0{fill:#959595}</style><path class="st0" d="M10.5 15c2.5 0 4.5-2 4.5-4.5v-6C15 2 13 0 10.5 0S6 2 6 4.5v6C6 13 8 15 10.5 15zm-3.3-5H9c.3 0 .5-.2.5-.5S9.3 9 9 9H7.2V8H9c.3 0 .5-.2.5-.5S9.3 7 9 7H7.2V6H9c.3 0 .5-.2.5-.5S9.3 5 9 5H7.2v-.5c0-1.8 1.5-3.3 3.3-3.3s3.3 1.5 3.3 3.3V5H12c-.3 0-.5.2-.5.5s.2.5.5.5h1.8v1H12c-.3 0-.5.2-.5.5s.2.5.5.5h1.8v1H12c-.3 0-.5.2-.5.5s.2.5.5.5h1.8v.5c0 1.8-1.5 3.3-3.3 3.3s-3.3-1.5-3.3-3.3V10z"/><path class="st0" d="M17 11h-1.2c-.3 2.7-2.5 4.8-5.3 4.8s-5-2.1-5.3-4.8H4c.2 3.2 2.8 5.7 6 6v2H8v1h5v-1h-2v-2c3.2-.3 5.8-2.8 6-6z"/></svg>