<svg id="Layer_1" xmlns="http://www.w3.org/2000/svg" width="30" height="30" viewBox="0 0 30 30"><style>.st0{fill:#959595}</style><path class="st0" d="M27.1 2.9A6.42 6.42 0 0 0 22.5 1c-1.8 0-3.4.7-4.6 1.9L15 5.7a6.42 6.42 0 0 0-1.9 4.6c0 1.1.3 2.2.8 3.1l-.4.4c-.9-.5-2-.8-3.1-.8-1.8 0-3.4.7-4.6 1.9L3 17.7c-1.3 1.3-2 3-2 4.8 0 1.8.7 3.4 1.9 4.6C4.1 28.3 5.7 29 7.5 29s3.4-.7 4.6-1.9l2.8-2.8c1.2-1.2 1.9-2.8 1.9-4.6 0-1.1-.3-2.2-.8-3.1l.4-.4c.9.5 2 .8 3.1.8 1.8 0 3.4-.7 4.6-1.9l2.8-2.8c1.4-1.3 2.1-3 2.1-4.8s-.7-3.4-1.9-4.6zM15 19.7c0 1.2-.5 2.4-1.4 3.3l-2.8 2.8c-.9.9-2.1 1.4-3.3 1.4s-2.4-.5-3.3-1.4c-.9-.9-1.4-2.1-1.4-3.3 0-1.2.5-2.4 1.4-3.3L7 16.4c.9-.9 2.1-1.4 3.3-1.4.6 0 1.2.1 1.7.3l-4 4 2.6 2.6 4-4c.3.6.4 1.2.4 1.8zm10.8-8.9L23 13.6c-.9.9-2.1 1.4-3.3 1.4-.6 0-1.2-.1-1.7-.3l4-4-2.6-2.6-4 4c-.2-.5-.3-1.1-.3-1.7 0-1.2.5-2.4 1.4-3.3l2.8-2.8c.9-.9 2.1-1.4 3.3-1.4 1.2 0 2.4.5 3.3 1.4.9.9 1.4 2.1 1.4 3.3s-.7 2.4-1.5 3.2z"/></svg>