<svg xmlns="http://www.w3.org/2000/svg" width="30" height="30" viewBox="0 0 30 30"><path fill="#949494" d="M15 1C7.3 1 1 7.3 1 15s6.3 14 14 14 14-6.3 14-14S22.7 1 15 1zm1 10c1.3 0 2.5-.1 3.6-.3.2 1 .3 2.1.4 3.3h-4v-3zm0-2V4.3c1.2.6 2.3 2.2 3.1 4.5-1 .1-2 .1-3.1.2zm-2-4.7V9c-1.1 0-2.1-.1-3.1-.2.8-2.4 1.9-3.9 3.1-4.5zm0 6.7v3h-4c.1-1.2.2-2.3.4-3.3 1.1.1 2.3.2 3.6.3zm-6 3H3c.2-1.9.8-3.7 1.7-5.3 1 .7 2.2 1.2 3.7 1.6-.2 1.1-.3 2.4-.4 3.7zm0 2c.1 1.3.2 2.6.4 3.7-1.5.4-2.7.9-3.7 1.6-1-1.6-1.6-3.4-1.7-5.3h5zm2 0h4v3c-1.3 0-2.5.1-3.6.3-.2-1-.3-2.1-.4-3.3zm4 5v4.7c-1.2-.6-2.3-2.2-3.1-4.5 1-.1 2-.1 3.1-.2zm2 4.7V21c1.1 0 2.1.1 3.1.2-.8 2.4-1.9 3.9-3.1 4.5zm0-6.7v-3h4c-.1 1.2-.2 2.3-.4 3.3-1.1-.1-2.3-.2-3.6-.3zm6-3h5c-.2 1.9-.8 3.7-1.7 5.3-1-.7-2.2-1.2-3.7-1.6.2-1.1.3-2.4.4-3.7zm0-2c-.1-1.3-.2-2.6-.4-3.7 1.5-.4 2.7-.9 3.7-1.6 1 1.6 1.6 3.4 1.7 5.3h-5zm2-6.9c-.8.5-1.8.9-3 1.2-.7-2.1-1.6-3.8-2.8-4.9 2.3.7 4.3 2 5.8 3.7zM11.7 3.5C10.6 4.6 9.6 6.3 9 8.3 7.8 8 6.8 7.6 6 7.1c1.5-1.7 3.5-3 5.7-3.6zM6 22.9c.8-.5 1.8-.9 3-1.2.7 2.1 1.6 3.8 2.8 4.9-2.3-.7-4.3-2-5.8-3.7zm12.3 3.6c1.2-1.1 2.1-2.8 2.8-4.9 1.2.3 2.2.7 3 1.2-1.6 1.8-3.6 3.1-5.8 3.7z"/></svg>