<svg id="Video" xmlns="http://www.w3.org/2000/svg" viewBox="0 0 1028 1028"><defs><style>.cls-1,.cls-2,.cls-4{fill:none;}.cls-1,.cls-2,.cls-3{stroke:#000;stroke-miterlimit:10;}.cls-1{stroke-width:7px;}.cls-2,.cls-3{stroke-width:4px;}</style></defs><title>rubiksCubeText_videoPhysicalCyber</title><path d="M113.7,479l10.1,52.8h0.3L134.7,479h14.9l-16.4,71.4H114.7L98.3,479h15.4Z"/><path d="M155,478.19h13.8V490H155v-11.8Zm0,18.4h13.8v53.8H155V496.6Z"/><path d="M206.1,544.7h-0.2c-3,5-6.8,7.1-12.2,7.1-11.3,0-16.5-8.3-16.5-28.3s5.2-28.3,16.5-28.3c5.2,0,8.7,2.1,11.6,6.4h0.2V479h13.8v71.4H206.1v-5.7Zm-7.9-3.5c6.1,0,7.3-6,7.3-17.7s-1.2-17.7-7.3-17.7-7.2,6-7.2,17.7S192.2,541.2,198.2,541.2Z"/><path d="M240.3,525.6v4.3c0,6.3,1.7,12.5,6.8,12.5,4.6,0,6.5-3.5,7.3-10.1h12.4c-0.5,12.5-6.5,19.5-19.5,19.5-20,0-20.8-15.4-20.8-28.8,0-14.4,2.8-27.8,21.4-27.8,16.1,0,19.7,10.8,19.7,27.3v3.1H240.3Zm14.1-8.2c-0.3-8.2-1.3-12.8-7-12.8-5.5,0-7.1,5.7-7.1,10.7v2.1h14.1Z"/><path d="M294.2,495.2c16.6-.3,21.2,9.6,21.2,28.3,0,18.4-5.4,28.3-21.2,28.3-16.6.3-21.2-9.6-21.2-28.3C273,505.1,278.4,495.2,294.2,495.2Zm0,47.2c5.6,0,7.4-5.5,7.4-18.9s-1.8-18.9-7.4-18.9c-6.8,0-7.4,7.9-7.4,18.9S287.4,542.4,294.2,542.4Z"/><path d="M336.8,534.8v13c0,10.6-2.5,18.1-13.2,19.1v-7c3.5-.6,5.2-4.2,5.2-7.9v-1.6h-5.2V534.8h13.2Z"/><path d="M367.5,479h25.2c14.6,0,19.6,10.7,19.6,21.4,0,14.8-9.1,21.5-22.7,21.5h-7.7v28.5H367.5V479Zm14.4,32.3h6.4c5.7,0,9.6-3.4,9.6-10.7,0-7-2.8-11-10-11h-6v21.7Z"/><path d="M419,479h13.8v23.1H433c2.6-4.6,7.3-6.9,13.1-6.9,8.6,0,13.7,4.7,13.7,15.3v39.9H446V513.3c0-5.4-1.8-7.5-5.9-7.5-4.7,0-7.3,2.9-7.3,8.9v35.7H419V479Z"/><path d="M469,557.7a21.85,21.85,0,0,0,3.6.3c5.1,0,7-2.8,7.4-7.6l-15.1-53.8h14.4l8,37.2h0.2l7-37.2h13.8l-13,50.2c-4.8,18.6-7.9,21.2-20.7,21.2H469V557.7Z"/><path d="M523.5,532.8v1.8c0,4.7,2.5,7.8,7.2,7.8,4.2,0,7-2.1,7-6.4,0-3.5-2.3-5.1-5-6.1l-9.7-3.5c-7.6-2.7-11.5-7.4-11.5-15,0-8.9,5.6-16.2,19.8-16.2,12.5,0,18.4,5.6,18.4,15.3v2.2H537.3c0-5.4-1.6-8.1-6.1-8.1-3.5,0-6.5,2-6.5,5.8,0,2.6,1.4,4.8,6,6.3l8.3,2.8c8.7,2.9,11.9,7.3,11.9,15.4,0,11.3-8.4,16.9-20,16.9-15.5,0-19.8-6.8-19.8-17.1v-1.9h12.4Z"/><path d="M558.3,478.19h13.8V490H558.3v-11.8Zm0,18.4h13.8v53.8H558.3V496.6Z"/><path d="M607.7,516c0-5.2-1-10.8-6.2-10.8-6.8,0-7.9,6-7.9,18.4,0,13.3,1.2,18.8,7.4,18.8,4.6,0,6.7-3.9,6.7-12.6h13.2c0,14.1-5.9,22-20.5,22-13.8,0-20.6-6.7-20.6-28.3,0-22.1,9.1-28.3,21.8-28.3s19.3,8.1,19.3,20.8H607.7Z"/><path d="M628,513.1v-1.3c0-12.4,8.5-16.6,18.9-16.6,16.4,0,19.5,6.8,19.5,16.5V540c0,5,.3,7.3,1.7,10.4H654.9a22.54,22.54,0,0,1-1.7-5.6H653c-3.2,5.6-7.1,7-13.7,7-9.6,0-13-8.2-13-15.4,0-10.1,4.1-14.2,13.6-16.8l7.8-2.1c4.1-1.1,5.5-2.7,5.5-6.3,0-4.1-1.8-6.6-6.4-6.6-4.2,0-6.4,2.8-6.4,7v1.5H628Zm25.2,10.4a17.07,17.07,0,0,1-5.9,2.7c-5.6,1.2-7.8,3.9-7.8,8.7,0,4.1,1.5,7.5,5.2,7.5s8.5-2.4,8.5-8.3V523.5Z"/><path d="M676.69,479h13.8v71.4h-13.8V479Z"/><path d="M714.19,534.8v13c0,10.6-2.5,18.1-13.2,19.1v-7c3.5-.6,5.2-4.2,5.2-7.9v-1.6H701V534.8h13.2Z"/><path d="M133.5,613.1c0-10.4-2.1-14.9-8.6-14.9-7.3,0-9,7.3-9,27.5,0,21.6,3,25.5,9.2,25.5,5.2,0,9-2.7,9-18.1h14.4c0,15.4-3.8,28.7-22.7,28.7-21.6,0-24.3-15.4-24.3-37.1s2.7-37.1,24.3-37.1c20.6,0,22.1,15.1,22.1,25.5H133.5Z"/><path d="M156.3,667.7a21.85,21.85,0,0,0,3.6.3c5.1,0,7-2.8,7.4-7.6l-15.1-53.8h14.4l8,37.2h0.2l7-37.2h13.8l-13,50.2c-4.8,18.6-7.9,21.2-20.7,21.2h-5.6V667.7Z"/><path d="M200.7,589h13.8v22.6h0.2c2.9-4.3,6.4-6.4,11.6-6.4,11.3,0,16.5,8.3,16.5,28.3s-5.2,28.3-16.5,28.3c-5.4,0-9.2-2.1-12.2-7.1h-0.2v5.7H200.7V589Zm21.1,62.2c6,0,7.2-6,7.2-17.7s-1.2-17.7-7.2-17.7-7.3,6-7.3,17.7S215.7,651.2,221.8,651.2Z"/><path d="M262.5,635.6v4.3c0,6.3,1.7,12.5,6.8,12.5,4.6,0,6.5-3.5,7.3-10.1H289c-0.5,12.5-6.5,19.5-19.5,19.5-20,0-20.8-15.4-20.8-28.8,0-14.4,2.8-27.8,21.4-27.8,16.1,0,19.7,10.8,19.7,27.3v3.1H262.5Zm14.1-8.2c-0.3-8.2-1.3-12.8-7-12.8-5.5,0-7.1,5.7-7.1,10.7v2.1h14.1Z"/><path d="M297,606.6h13.2v7.2h0.2c2.8-5.2,6.7-8.6,12.4-8.6a20.93,20.93,0,0,1,2.5.2v13.2c-1.4-.1-2.9-0.2-4.3-0.2-4.8,0-10.2,2.5-10.2,9.7v32.3H297V606.6Z"/><path d="M366.3,638.1v2.1c0,6.7,1.9,11,9.5,11,4.4,0,8.6-2.8,8.6-8.8,0-6.5-3.3-8.9-12.8-12.2-12.8-4.4-18.7-9.7-18.7-21.6,0-13.9,8.5-21,22.1-21,12.8,0,22.1,5.5,22.1,19.2v2H383.3c0-6.7-2.3-10.6-7.8-10.6-6.5,0-8.2,4.1-8.2,8.3,0,4.4,1.3,7.1,7.4,9.7l11.1,4.8c10.8,4.7,13.6,10.2,13.6,18.9,0,15.1-9.2,21.9-24.8,21.9-16.3,0-22.7-7.6-22.7-20.8v-2.9h14.4Z"/><path d="M418,635.6v4.3c0,6.3,1.7,12.5,6.8,12.5,4.6,0,6.5-3.5,7.3-10.1h12.4c-0.5,12.5-6.5,19.5-19.5,19.5-20,0-20.8-15.4-20.8-28.8,0-14.4,2.8-27.8,21.4-27.8,16.1,0,19.7,10.8,19.7,27.3v3.1H418Zm14.1-8.2c-0.3-8.2-1.3-12.8-7-12.8-5.5,0-7.1,5.7-7.1,10.7v2.1h14.1Z"/><path d="M478.4,626c0-5.2-1-10.8-6.2-10.8-6.8,0-7.9,6-7.9,18.4,0,13.3,1.2,18.8,7.4,18.8,4.6,0,6.7-3.9,6.7-12.6h13.2c0,14.1-5.9,22-20.5,22-13.8,0-20.6-6.7-20.6-28.3,0-22.1,9.1-28.3,21.8-28.3s19.3,8.1,19.3,20.8H478.4Z"/><path d="M526.4,654.1h-0.2c-2.9,5.3-7.9,7.7-13.7,7.7-8.6,0-13.7-4.7-13.7-15.3V606.6h13.8v37.1c0,5.4,1.8,7.5,5.9,7.5,4.7,0,7.3-2.9,7.3-8.9V606.6h13.8v53.8H526.4v-6.3Z"/><path d="M548.8,606.6H562v7.2h0.2c2.8-5.2,6.7-8.6,12.4-8.6a21,21,0,0,1,2.5.2v13.2c-1.4-.1-2.9-0.2-4.3-0.2-4.8,0-10.2,2.5-10.2,9.7v32.3H548.8V606.6Z"/><path d="M582.59,588.19h13.8V600h-13.8v-11.8Zm0,18.4h13.8v53.8h-13.8V606.6Z"/><path d="M609.09,591.2h13.8v15.4h8V616h-8v29.1c0,4.2.9,5.9,4.9,5.9a28.61,28.61,0,0,0,3.1-.2v9.6a86.56,86.56,0,0,1-9,.6c-10.8,0-12.8-3.3-12.8-14.2V616h-7v-9.4h7V591.2Z"/><path d="M635.69,667.7a21.84,21.84,0,0,0,3.6.3c5.1,0,7-2.8,7.4-7.6l-15.1-53.8H646l8,37.2h0.2l7-37.2H675l-13,50.2c-4.8,18.6-7.9,21.2-20.7,21.2h-5.6V667.7Z"/><path d="M704,623.1v-1.3c0-12.4,8.5-16.6,18.9-16.6,16.4,0,19.5,6.8,19.5,16.5V650c0,5,.3,7.3,1.7,10.4h-13.2a22.54,22.54,0,0,1-1.7-5.6H729c-3.2,5.6-7.1,7-13.7,7-9.6,0-13-8.2-13-15.4,0-10.1,4.1-14.2,13.6-16.8l7.8-2.1c4.1-1.1,5.5-2.7,5.5-6.3,0-4.1-1.8-6.6-6.4-6.6-4.2,0-6.4,2.8-6.4,7v1.5H704Zm25.2,10.4a17.07,17.07,0,0,1-5.9,2.7c-5.6,1.2-7.8,3.9-7.8,8.7,0,4.1,1.5,7.5,5.2,7.5s8.5-2.4,8.5-8.3V633.5Z"/><path d="M752.19,606.6h13.2v6.3h0.2c2.9-5.3,7.9-7.7,13.7-7.7,8.6,0,13.7,4.7,13.7,15.3v39.9h-13.8V623.3c0-5.4-1.8-7.5-5.9-7.5-4.7,0-7.3,2.9-7.3,8.9v35.7h-13.8V606.6Z"/><path d="M829.79,654.7h-0.2c-3,5-6.8,7.1-12.2,7.1-11.3,0-16.5-8.3-16.5-28.3s5.2-28.3,16.5-28.3c5.2,0,8.7,2.1,11.6,6.4h0.2V589H843v71.4h-13.2v-5.7Zm-7.9-3.5c6.1,0,7.3-6,7.3-17.7s-1.2-17.7-7.3-17.7-7.2,6-7.2,17.7S815.89,651.2,821.89,651.2Z"/><path d="M114.6,748.1v2.1c0,6.7,1.9,11,9.5,11,4.4,0,8.6-2.8,8.6-8.8,0-6.5-3.3-8.9-12.8-12.2-12.8-4.4-18.7-9.7-18.7-21.6,0-13.9,8.5-21,22.1-21,12.8,0,22.1,5.5,22.1,19.2v2H131.6c0-6.7-2.3-10.6-7.8-10.6-6.5,0-8.2,4.1-8.2,8.3,0,4.4,1.3,7.1,7.4,9.7l11.1,4.8c10.8,4.7,13.6,10.2,13.6,18.9,0,15.1-9.2,21.9-24.8,21.9-16.3,0-22.7-7.6-22.7-20.8v-2.9h14.4Z"/><path d="M182.1,764.1h-0.2c-2.9,5.3-7.9,7.7-13.7,7.7-8.6,0-13.7-4.7-13.7-15.3v-39.9h13.8v37.1c0,5.4,1.8,7.5,5.9,7.5,4.7,0,7.3-2.9,7.3-8.9v-35.7h13.8v53.8H182.1v-6.3Z"/><path d="M204.5,716.59h13.2v7.2h0.2c2.8-5.2,6.7-8.6,12.4-8.6a20.93,20.93,0,0,1,2.5.2v13.2c-1.4-.1-2.9-0.2-4.3-0.2-4.8,0-10.2,2.5-10.2,9.7v32.3H204.5v-53.8Z"/><path d="M265.1,716.59h13.8l-13.5,53.8h-16l-13.9-53.8h14.4l7.7,38.5h0.2Z"/><path d="M295.8,745.6v4.3c0,6.3,1.7,12.5,6.8,12.5,4.6,0,6.5-3.5,7.3-10.1h12.4c-0.5,12.5-6.5,19.5-19.5,19.5-20,0-20.8-15.4-20.8-28.8,0-14.4,2.8-27.8,21.4-27.8,16.1,0,19.7,10.8,19.7,27.3v3.1H295.8Zm14.1-8.2c-0.3-8.2-1.3-12.8-7-12.8-5.5,0-7.1,5.7-7.1,10.7v2.1h14.1Z"/><path d="M330.8,698.19h13.8V710H330.8v-11.8Zm0,18.4h13.8v53.8H330.8v-53.8Z"/><path d="M354.8,699h13.8v71.4H354.8V699Z"/><path d="M378.79,699h13.8v71.4h-13.8V699Z"/><path d="M402.19,733.1v-1.3c0-12.4,8.5-16.6,18.9-16.6,16.4,0,19.5,6.8,19.5,16.5V760c0,5,.3,7.3,1.7,10.4H429.1a22.61,22.61,0,0,1-1.7-5.6h-0.2c-3.2,5.6-7.1,7-13.7,7-9.6,0-13-8.2-13-15.4,0-10.1,4.1-14.2,13.6-16.8l7.8-2.1c4.1-1.1,5.5-2.7,5.5-6.3,0-4.1-1.8-6.6-6.4-6.6-4.2,0-6.4,2.8-6.4,7v1.5h-12.4Zm25.2,10.4a17.08,17.08,0,0,1-5.9,2.7c-5.6,1.2-7.8,3.9-7.8,8.7,0,4.1,1.5,7.5,5.2,7.5s8.5-2.4,8.5-8.3V743.5Z"/><path d="M450.39,716.59h13.2v6.3h0.2c2.9-5.3,7.9-7.7,13.7-7.7,8.6,0,13.7,4.7,13.7,15.3v39.9h-13.8V733.3c0-5.4-1.8-7.5-5.9-7.5-4.7,0-7.3,2.9-7.3,8.9v35.7h-13.8v-53.8Z"/><path d="M526.29,736c0-5.2-1-10.8-6.2-10.8-6.8,0-7.9,6-7.9,18.4,0,13.3,1.2,18.8,7.4,18.8,4.6,0,6.7-3.9,6.7-12.6h13.2c0,14.1-5.9,22-20.5,22-13.8,0-20.6-6.7-20.6-28.3,0-22.1,9.1-28.3,21.8-28.3s19.3,8.1,19.3,20.8h-13.2Z"/><path d="M558.49,745.6v4.3c0,6.3,1.7,12.5,6.8,12.5,4.6,0,6.5-3.5,7.3-10.1H585c-0.5,12.5-6.5,19.5-19.5,19.5-20,0-20.8-15.4-20.8-28.8,0-14.4,2.8-27.8,21.4-27.8,16.1,0,19.7,10.8,19.7,27.3v3.1h-27.3Zm14.1-8.2c-0.3-8.2-1.3-12.8-7-12.8-5.5,0-7.1,5.7-7.1,10.7v2.1h14.1Z"/><path class="cls-1" d="M206.5,162.36c0,18.57-48.54,35.42-106.49,34.29,0,120.72,42,188.55,106.73,225.2l0.24,0c64.71-36.66,105.12-104.52,105.12-225.23-57,1.13-105.59-15.58-105.59-34.16v-0.13Z"/><circle class="cls-2" cx="206.5" cy="252.5" r="43.02"/><circle class="cls-2" cx="236.1" cy="300.5" r="43.02"/><circle class="cls-2" cx="176.9" cy="300.5" r="43.02"/><path class="cls-3" d="M205.7,269.3a42.91,42.91,0,0,0-12.86,24.27,43.24,43.24,0,0,0,25.71,0A42.91,42.91,0,0,0,205.7,269.3Z"/><rect class="cls-4" width="1028" height="1028"/></svg>