<svg id="Command_and_Control" data-name="Command and Control" xmlns="http://www.w3.org/2000/svg" viewBox="0 0 808.16 763.67"><defs><style>.cls-1{fill:none;stroke:#000;stroke-miterlimit:10;stroke-width:7px;}</style></defs><title>rubiksCubeText_commandAndControl</title><path d="M133.5,503.1c0-10.4-2.1-14.9-8.6-14.9-7.3,0-9,7.3-9,27.5,0,21.6,3,25.5,9.2,25.5,5.2,0,9-2.7,9-18.1h14.4c0,15.4-3.8,28.7-22.7,28.7-21.6,0-24.3-15.4-24.3-37.1s2.7-37.1,24.3-37.1c20.6,0,22.1,15.1,22.1,25.5H133.5Z" transform="translate(-68.63 -135.13)"/><path d="M175.7,495.2c16.6-.3,21.2,9.6,21.2,28.3,0,18.4-5.4,28.3-21.2,28.3-16.6.3-21.2-9.6-21.2-28.3C154.5,505.1,159.9,495.2,175.7,495.2Zm0,47.2c5.6,0,7.4-5.5,7.4-18.9s-1.8-18.9-7.4-18.9c-6.8,0-7.4,7.9-7.4,18.9S168.9,542.4,175.7,542.4Z" transform="translate(-68.63 -135.13)"/><path d="M204.3,496.6h13.2v5.5h0.2c3.5-4.9,7.8-6.9,13.6-6.9,6.3,0,10.9,3.1,12.4,8.6h0.2c2.1-5.7,7.1-8.6,13.6-8.6,9.1,0,13.4,5.7,13.4,16.1v39.1H257.1V512.8c0-4.5-1.5-7-5.4-7-4.4,0-7.2,3-7.2,9.2v35.4H230.7V512.8c0-4.5-1.5-7-5.4-7-4.4,0-7.2,3-7.2,9.2v35.4H204.3V496.6Z" transform="translate(-68.63 -135.13)"/><path d="M280.1,496.6h13.2v5.5h0.2c3.5-4.9,7.8-6.9,13.6-6.9,6.3,0,10.9,3.1,12.4,8.6h0.2c2.1-5.7,7.1-8.6,13.6-8.6,9.1,0,13.4,5.7,13.4,16.1v39.1H332.9V512.8c0-4.5-1.5-7-5.4-7-4.4,0-7.2,3-7.2,9.2v35.4H306.5V512.8c0-4.5-1.5-7-5.4-7-4.4,0-7.2,3-7.2,9.2v35.4H280.1V496.6Z" transform="translate(-68.63 -135.13)"/><path d="M355.8,513.1v-1.3c0-12.4,8.5-16.6,18.9-16.6,16.4,0,19.5,6.8,19.5,16.5V540c0,5,.3,7.3,1.7,10.4H382.7a22.6,22.6,0,0,1-1.7-5.6h-0.2c-3.2,5.6-7.1,7-13.7,7-9.6,0-13-8.2-13-15.4,0-10.1,4.1-14.2,13.6-16.8l7.8-2.1c4.1-1.1,5.5-2.7,5.5-6.3,0-4.1-1.8-6.6-6.4-6.6-4.2,0-6.4,2.8-6.4,7v1.5H355.8ZM381,523.5a17.06,17.06,0,0,1-5.9,2.7c-5.6,1.2-7.8,3.9-7.8,8.7,0,4.1,1.5,7.5,5.2,7.5s8.5-2.4,8.5-8.3V523.5Z" transform="translate(-68.63 -135.13)"/><path d="M404,496.6h13.2v6.3h0.2c2.9-5.3,7.9-7.7,13.7-7.7,8.6,0,13.7,4.7,13.7,15.3v39.9H431V513.3c0-5.4-1.8-7.5-5.9-7.5-4.7,0-7.3,2.9-7.3,8.9v35.7H404V496.6Z" transform="translate(-68.63 -135.13)"/><path d="M481.6,544.7h-0.2c-3,5-6.8,7.1-12.2,7.1-11.3,0-16.5-8.3-16.5-28.3s5.2-28.3,16.5-28.3c5.2,0,8.7,2.1,11.6,6.4H481V479h13.8v71.4H481.6v-5.7Zm-7.9-3.5c6.1,0,7.3-6,7.3-17.7s-1.2-17.7-7.3-17.7-7.2,6-7.2,17.7S467.7,541.2,473.7,541.2Z" transform="translate(-68.63 -135.13)"/><path d="M527.9,513.1v-1.3c0-12.4,8.5-16.6,18.9-16.6,16.4,0,19.5,6.8,19.5,16.5V540c0,5,.3,7.3,1.7,10.4H554.8a22.54,22.54,0,0,1-1.7-5.6h-0.2c-3.2,5.6-7.1,7-13.7,7-9.6,0-13-8.2-13-15.4,0-10.1,4.1-14.2,13.6-16.8l7.8-2.1c4.1-1.1,5.5-2.7,5.5-6.3,0-4.1-1.8-6.6-6.4-6.6-4.2,0-6.4,2.8-6.4,7v1.5H527.9Zm25.2,10.4a17.07,17.07,0,0,1-5.9,2.7c-5.6,1.2-7.8,3.9-7.8,8.7,0,4.1,1.5,7.5,5.2,7.5s8.5-2.4,8.5-8.3V523.5Z" transform="translate(-68.63 -135.13)"/><path d="M576.09,496.6h13.2v6.3h0.2c2.9-5.3,7.9-7.7,13.7-7.7,8.6,0,13.7,4.7,13.7,15.3v39.9H603.1V513.3c0-5.4-1.8-7.5-5.9-7.5-4.7,0-7.3,2.9-7.3,8.9v35.7h-13.8V496.6Z" transform="translate(-68.63 -135.13)"/><path d="M653.7,544.7h-0.2c-3,5-6.8,7.1-12.2,7.1-11.3,0-16.5-8.3-16.5-28.3s5.2-28.3,16.5-28.3c5.2,0,8.7,2.1,11.6,6.4h0.2V479h13.8v71.4H653.7v-5.7Zm-7.9-3.5c6.1,0,7.3-6,7.3-17.7s-1.2-17.7-7.3-17.7-7.2,6-7.2,17.7S639.79,541.2,645.8,541.2Z" transform="translate(-68.63 -135.13)"/><path d="M133.5,613.1c0-10.4-2.1-14.9-8.6-14.9-7.3,0-9,7.3-9,27.5,0,21.6,3,25.5,9.2,25.5,5.2,0,9-2.7,9-18.1h14.4c0,15.4-3.8,28.7-22.7,28.7-21.6,0-24.3-15.4-24.3-37.1s2.7-37.1,24.3-37.1c20.6,0,22.1,15.1,22.1,25.5H133.5Z" transform="translate(-68.63 -135.13)"/><path d="M175.7,605.2c16.6-.3,21.2,9.6,21.2,28.3,0,18.4-5.4,28.3-21.2,28.3-16.6.3-21.2-9.6-21.2-28.3C154.5,615.1,159.9,605.2,175.7,605.2Zm0,47.2c5.6,0,7.4-5.5,7.4-18.9s-1.8-18.9-7.4-18.9c-6.8,0-7.4,7.9-7.4,18.9S168.9,652.4,175.7,652.4Z" transform="translate(-68.63 -135.13)"/><path d="M204.3,606.6h13.2v6.3h0.2c2.9-5.3,7.9-7.7,13.7-7.7,8.6,0,13.7,4.7,13.7,15.3v39.9H231.3V623.3c0-5.4-1.8-7.5-5.9-7.5-4.7,0-7.3,2.9-7.3,8.9v35.7H204.3V606.6Z" transform="translate(-68.63 -135.13)"/><path d="M257.3,591.2h13.8v15.4h8V616h-8v29.1c0,4.2.9,5.9,4.9,5.9a28.62,28.62,0,0,0,3.1-.2v9.6a86.58,86.58,0,0,1-9,.6c-10.8,0-12.8-3.3-12.8-14.2V616h-7v-9.4h7V591.2Z" transform="translate(-68.63 -135.13)"/><path d="M283.9,606.6h13.2v7.2h0.2c2.8-5.2,6.7-8.6,12.4-8.6a20.93,20.93,0,0,1,2.5.2v13.2c-1.4-.1-2.9-0.2-4.3-0.2-4.8,0-10.2,2.5-10.2,9.7v32.3H283.9V606.6Z" transform="translate(-68.63 -135.13)"/><path d="M336.6,605.2c16.6-.3,21.2,9.6,21.2,28.3,0,18.4-5.4,28.3-21.2,28.3-16.6.3-21.2-9.6-21.2-28.3C315.4,615.1,320.8,605.2,336.6,605.2Zm0,47.2c5.6,0,7.4-5.5,7.4-18.9s-1.8-18.9-7.4-18.9c-6.8,0-7.4,7.9-7.4,18.9S329.8,652.4,336.6,652.4Z" transform="translate(-68.63 -135.13)"/><path d="M365.7,589h13.8v71.4H365.7V589Z" transform="translate(-68.63 -135.13)"/><path d="M403.2,644.8v13c0,10.6-2.5,18.1-13.2,19.1v-7c3.5-.6,5.2-4.2,5.2-7.9v-1.6H390V644.8h13.2Z" transform="translate(-68.63 -135.13)"/><path d="M456.7,587.59c21.6,0,24.3,15.4,24.3,37.1s-2.7,37.1-24.3,37.1-24.3-15.4-24.3-37.1S435.09,587.59,456.7,587.59Zm0,63.6c8.5,0,9.9-7.3,9.9-26.5s-1.4-26.5-9.9-26.5-9.9,7.4-9.9,26.5S448.2,651.2,456.7,651.2Z" transform="translate(-68.63 -135.13)"/><path d="M489.09,606.6h13.2v5.7h0.2c3-5,6.8-7.1,12.2-7.1,11.3,0,16.5,8.3,16.5,28.3s-5.2,28.3-16.5,28.3c-5.2,0-8.7-2.1-11.6-6.4h-0.2V678h-13.8V606.6Zm21.1,44.6c6,0,7.2-6,7.2-17.7s-1.2-17.7-7.2-17.7-7.3,6-7.3,17.7S504.1,651.2,510.2,651.2Z" transform="translate(-68.63 -135.13)"/><path d="M550.9,635.6v4.3c0,6.3,1.7,12.5,6.8,12.5,4.6,0,6.5-3.5,7.3-10.1h12.4c-0.5,12.5-6.5,19.5-19.5,19.5-20,0-20.8-15.4-20.8-28.8,0-14.4,2.8-27.8,21.4-27.8,16.1,0,19.7,10.8,19.7,27.3v3.1H550.9Zm14.1-8.2c-0.3-8.2-1.3-12.8-7-12.8-5.5,0-7.1,5.7-7.1,10.7v2.1H565Z" transform="translate(-68.63 -135.13)"/><path d="M585.4,606.6h13.2v7.2h0.2c2.8-5.2,6.7-8.6,12.4-8.6a21,21,0,0,1,2.5.2v13.2c-1.4-.1-2.9-0.2-4.3-0.2-4.8,0-10.2,2.5-10.2,9.7v32.3H585.4V606.6Z" transform="translate(-68.63 -135.13)"/><path d="M618.59,623.1v-1.3c0-12.4,8.5-16.6,18.9-16.6,16.4,0,19.5,6.8,19.5,16.5V650c0,5,.3,7.3,1.7,10.4H645.5a22.54,22.54,0,0,1-1.7-5.6h-0.2c-3.2,5.6-7.1,7-13.7,7-9.6,0-13-8.2-13-15.4,0-10.1,4.1-14.2,13.6-16.8l7.8-2.1c4.1-1.1,5.5-2.7,5.5-6.3,0-4.1-1.8-6.6-6.4-6.6-4.2,0-6.4,2.8-6.4,7v1.5h-12.4Zm25.2,10.4a17.07,17.07,0,0,1-5.9,2.7c-5.6,1.2-7.8,3.9-7.8,8.7,0,4.1,1.5,7.5,5.2,7.5s8.5-2.4,8.5-8.3V633.5Z" transform="translate(-68.63 -135.13)"/><path d="M669.79,591.2h13.8v15.4h8V616h-8v29.1c0,4.2.9,5.9,4.9,5.9a28.61,28.61,0,0,0,3.1-.2v9.6a86.56,86.56,0,0,1-9,.6c-10.8,0-12.8-3.3-12.8-14.2V616h-7v-9.4h7V591.2Z" transform="translate(-68.63 -135.13)"/><path d="M696.89,588.19h13.8V600h-13.8v-11.8Zm0,18.4h13.8v53.8h-13.8V606.6Z" transform="translate(-68.63 -135.13)"/><path d="M739.79,605.2c16.6-.3,21.2,9.6,21.2,28.3,0,18.4-5.4,28.3-21.2,28.3-16.6.3-21.2-9.6-21.2-28.3C718.59,615.1,724,605.2,739.79,605.2Zm0,47.2c5.6,0,7.4-5.5,7.4-18.9s-1.8-18.9-7.4-18.9c-6.8,0-7.4,7.9-7.4,18.9S733,652.4,739.79,652.4Z" transform="translate(-68.63 -135.13)"/><path d="M768.39,606.6h13.2v6.3h0.2c2.9-5.3,7.9-7.7,13.7-7.7,8.6,0,13.7,4.7,13.7,15.3v39.9h-13.8V623.3c0-5.4-1.8-7.5-5.9-7.5-4.7,0-7.3,2.9-7.3,8.9v35.7h-13.8V606.6Z" transform="translate(-68.63 -135.13)"/><path d="M828.49,642.8v1.8c0,4.7,2.5,7.8,7.2,7.8,4.2,0,7-2.1,7-6.4,0-3.5-2.3-5.1-5-6.1l-9.7-3.5c-7.6-2.7-11.5-7.4-11.5-15,0-8.9,5.6-16.2,19.8-16.2,12.5,0,18.4,5.6,18.4,15.3v2.2h-12.4c0-5.4-1.6-8.1-6.1-8.1-3.5,0-6.5,2-6.5,5.8,0,2.6,1.4,4.8,6,6.3l8.3,2.8c8.7,2.9,11.9,7.3,11.9,15.4,0,11.3-8.4,16.9-20,16.9-15.5,0-19.8-6.8-19.8-17.1v-1.9h12.4Z" transform="translate(-68.63 -135.13)"/><path d="M876.79,644.8v13c0,10.6-2.5,18.1-13.2,19.1v-7c3.5-.6,5.2-4.2,5.2-7.9v-1.6h-5.2V644.8h13.2Z" transform="translate(-68.63 -135.13)"/><path d="M102.5,733.1v-1.3c0-12.4,8.5-16.6,18.9-16.6,16.4,0,19.5,6.8,19.5,16.5V760c0,5,.3,7.3,1.7,10.4H129.4a22.61,22.61,0,0,1-1.7-5.6h-0.2c-3.2,5.6-7.1,7-13.7,7-9.6,0-13-8.2-13-15.4,0-10.1,4.1-14.2,13.6-16.8l7.8-2.1c4.1-1.1,5.5-2.7,5.5-6.3,0-4.1-1.8-6.6-6.4-6.6-4.2,0-6.4,2.8-6.4,7v1.5H102.5Zm25.2,10.4a17.08,17.08,0,0,1-5.9,2.7c-5.6,1.2-7.8,3.9-7.8,8.7,0,4.1,1.5,7.5,5.2,7.5s8.5-2.4,8.5-8.3V743.5Z" transform="translate(-68.63 -135.13)"/><path d="M150.7,716.59h13.2v6.3h0.2c2.9-5.3,7.9-7.7,13.7-7.7,8.6,0,13.7,4.7,13.7,15.3v39.9H177.7V733.3c0-5.4-1.8-7.5-5.9-7.5-4.7,0-7.3,2.9-7.3,8.9v35.7H150.7v-53.8Z" transform="translate(-68.63 -135.13)"/><path d="M228.3,764.7h-0.2c-3,5-6.8,7.1-12.2,7.1-11.3,0-16.5-8.3-16.5-28.3s5.2-28.3,16.5-28.3c5.2,0,8.7,2.1,11.6,6.4h0.2V699h13.8v71.4H228.3v-5.7Zm-7.9-3.5c6.1,0,7.3-6,7.3-17.7s-1.2-17.7-7.3-17.7-7.2,6-7.2,17.7S214.4,761.2,220.4,761.2Z" transform="translate(-68.63 -135.13)"/><path d="M315,699v11.8H289.5v16.8h24v11.8h-24v19.2H316v11.8H275.1V699H315Z" transform="translate(-68.63 -135.13)"/><path d="M322.8,716.59H336v5.5h0.2c3.5-4.9,7.8-6.9,13.6-6.9,6.3,0,10.9,3.1,12.4,8.6h0.2c2.1-5.7,7.1-8.6,13.6-8.6,9.1,0,13.4,5.7,13.4,16.1v39.1H375.6V732.8c0-4.5-1.5-7-5.4-7-4.4,0-7.2,3-7.2,9.2v35.4H349.2V732.8c0-4.5-1.5-7-5.4-7-4.4,0-7.2,3-7.2,9.2v35.4H322.8v-53.8Z" transform="translate(-68.63 -135.13)"/><path d="M410.4,745.6v4.3c0,6.3,1.7,12.5,6.8,12.5,4.6,0,6.5-3.5,7.3-10.1h12.4c-0.5,12.5-6.5,19.5-19.5,19.5-20,0-20.8-15.4-20.8-28.8,0-14.4,2.8-27.8,21.4-27.8,16.1,0,19.7,10.8,19.7,27.3v3.1H410.4Zm14.1-8.2c-0.3-8.2-1.3-12.8-7-12.8-5.5,0-7.1,5.7-7.1,10.7v2.1h14.1Z" transform="translate(-68.63 -135.13)"/><path d="M444.9,716.59h13.2v7.2h0.2c2.8-5.2,6.7-8.6,12.4-8.6a20.92,20.92,0,0,1,2.5.2v13.2c-1.4-.1-2.9-0.2-4.3-0.2-4.8,0-10.2,2.5-10.2,9.7v32.3H444.9v-53.8Z" transform="translate(-68.63 -135.13)"/><path d="M518.5,716.59v51.1c0,14.2-6.3,21.1-22.4,21.1-11.7,0-18.3-5.2-18.3-14.4H491a4.8,4.8,0,0,0,2.1,4.1,8.15,8.15,0,0,0,4.6,1.5c5.6,0,7.6-4.2,7.6-9.7v-7.1h-0.2c-2.8,4-7.1,6.6-11.5,6.6-11,0-16.5-7.5-16.5-27.2,0-12.6,1.9-27.4,16.9-27.4a12,12,0,0,1,11.1,7.4h0.2v-6h13.2Zm-20.7,42.6c5.8,0,7.5-6.3,7.5-15.4,0-13.1-1.7-18-7.2-18-6.1,0-7.2,4.9-7.2,19.4C490.9,752.6,492,759.2,497.8,759.2Z" transform="translate(-68.63 -135.13)"/><path d="M540,745.6v4.3c0,6.3,1.7,12.5,6.8,12.5,4.6,0,6.5-3.5,7.3-10.1h12.4c-0.5,12.5-6.5,19.5-19.5,19.5-20,0-20.8-15.4-20.8-28.8,0-14.4,2.8-27.8,21.4-27.8,16.1,0,19.7,10.8,19.7,27.3v3.1H540Zm14.1-8.2c-0.3-8.2-1.3-12.8-7-12.8-5.5,0-7.1,5.7-7.1,10.7v2.1h14.1Z" transform="translate(-68.63 -135.13)"/><path d="M574.5,716.59h13.2v6.3h0.2c2.9-5.3,7.9-7.7,13.7-7.7,8.6,0,13.7,4.7,13.7,15.3v39.9H601.5V733.3c0-5.4-1.8-7.5-5.9-7.5-4.7,0-7.3,2.9-7.3,8.9v35.7H574.5v-53.8Z" transform="translate(-68.63 -135.13)"/><path d="M650.4,736c0-5.2-1-10.8-6.2-10.8-6.8,0-7.9,6-7.9,18.4,0,13.3,1.2,18.8,7.4,18.8,4.6,0,6.7-3.9,6.7-12.6h13.2c0,14.1-5.9,22-20.5,22-13.8,0-20.6-6.7-20.6-28.3,0-22.1,9.1-28.3,21.8-28.3s19.3,8.1,19.3,20.8H650.4Z" transform="translate(-68.63 -135.13)"/><path d="M669.8,777.7a21.94,21.94,0,0,0,3.6.3c5.1,0,7-2.8,7.4-7.6l-15.1-53.8h14.4l8,37.2h0.2l7-37.2h13.8l-13,50.2c-4.8,18.6-7.9,21.2-20.7,21.2h-5.6V777.7Z" transform="translate(-68.63 -135.13)"/><path d="M103.3,809h21.4l10.2,50.4h0.2L145.4,809h21.3v71.4H153.5v-57h-0.2l-12.7,57H129.4l-12.7-57h-0.2v57H103.3V809Z" transform="translate(-68.63 -135.13)"/><path d="M176.5,843.1v-1.3c0-12.4,8.5-16.6,18.9-16.6,16.4,0,19.5,6.8,19.5,16.5V870c0,5,.3,7.3,1.7,10.4H203.4a22.61,22.61,0,0,1-1.7-5.6h-0.2c-3.2,5.6-7.1,7-13.7,7-9.6,0-13-8.2-13-15.4,0-10.1,4.1-14.2,13.6-16.8l7.8-2.1c4.1-1.1,5.5-2.7,5.5-6.3,0-4.1-1.8-6.6-6.4-6.6-4.2,0-6.4,2.8-6.4,7v1.5H176.5Zm25.2,10.4a17.08,17.08,0,0,1-5.9,2.7c-5.6,1.2-7.8,3.9-7.8,8.7,0,4.1,1.5,7.5,5.2,7.5s8.5-2.4,8.5-8.3V853.5Z" transform="translate(-68.63 -135.13)"/><path d="M224.7,826.59h13.2v6.3h0.2c2.9-5.3,7.9-7.7,13.7-7.7,8.6,0,13.7,4.7,13.7,15.3v39.9H251.7V843.3c0-5.4-1.8-7.5-5.9-7.5-4.7,0-7.3,2.9-7.3,8.9v35.7H224.7v-53.8Z" transform="translate(-68.63 -135.13)"/><path d="M274.6,843.1v-1.3c0-12.4,8.5-16.6,18.9-16.6,16.4,0,19.5,6.8,19.5,16.5V870c0,5,.3,7.3,1.7,10.4H301.5a22.61,22.61,0,0,1-1.7-5.6h-0.2c-3.2,5.6-7.1,7-13.7,7-9.6,0-13-8.2-13-15.4,0-10.1,4.1-14.2,13.6-16.8l7.8-2.1c4.1-1.1,5.5-2.7,5.5-6.3,0-4.1-1.8-6.6-6.4-6.6-4.2,0-6.4,2.8-6.4,7v1.5H274.6Zm25.2,10.4a17.08,17.08,0,0,1-5.9,2.7c-5.6,1.2-7.8,3.9-7.8,8.7,0,4.1,1.5,7.5,5.2,7.5s8.5-2.4,8.5-8.3V853.5Z" transform="translate(-68.63 -135.13)"/><path d="M363.1,826.59v51.1c0,14.2-6.3,21.1-22.4,21.1-11.7,0-18.3-5.2-18.3-14.4h13.2a4.8,4.8,0,0,0,2.1,4.1,8.15,8.15,0,0,0,4.6,1.5c5.6,0,7.6-4.2,7.6-9.7v-7.1h-0.2c-2.8,4-7.1,6.6-11.5,6.6-11,0-16.5-7.5-16.5-27.2,0-12.6,1.9-27.4,16.9-27.4a12,12,0,0,1,11.1,7.4h0.2v-6h13.2Zm-20.7,42.6c5.8,0,7.5-6.3,7.5-15.4,0-13.1-1.7-18-7.2-18-6.1,0-7.2,4.9-7.2,19.4C335.5,862.6,336.6,869.2,342.4,869.2Z" transform="translate(-68.63 -135.13)"/><path d="M384.6,855.6v4.3c0,6.3,1.7,12.5,6.8,12.5,4.6,0,6.5-3.5,7.3-10.1h12.4c-0.5,12.5-6.5,19.5-19.5,19.5-20,0-20.8-15.4-20.8-28.8,0-14.4,2.8-27.8,21.4-27.8,16.1,0,19.7,10.8,19.7,27.3v3.1H384.6Zm14.1-8.2c-0.3-8.2-1.3-12.8-7-12.8-5.5,0-7.1,5.7-7.1,10.7v2.1h14.1Z" transform="translate(-68.63 -135.13)"/><path d="M419.1,826.59h13.2v5.5h0.2c3.5-4.9,7.8-6.9,13.6-6.9,6.3,0,10.9,3.1,12.4,8.6h0.2c2.1-5.7,7.1-8.6,13.6-8.6,9.1,0,13.4,5.7,13.4,16.1v39.1H471.9V842.8c0-4.5-1.5-7-5.4-7-4.4,0-7.2,3-7.2,9.2v35.4H445.5V842.8c0-4.5-1.5-7-5.4-7-4.4,0-7.2,3-7.2,9.2v35.4H419.1v-53.8Z" transform="translate(-68.63 -135.13)"/><path d="M506.7,855.6v4.3c0,6.3,1.7,12.5,6.8,12.5,4.6,0,6.5-3.5,7.3-10.1h12.4c-0.5,12.5-6.5,19.5-19.5,19.5-20,0-20.8-15.4-20.8-28.8,0-14.4,2.8-27.8,21.4-27.8,16.1,0,19.7,10.8,19.7,27.3v3.1H506.7Zm14.1-8.2c-0.3-8.2-1.3-12.8-7-12.8-5.5,0-7.1,5.7-7.1,10.7v2.1h14.1Z" transform="translate(-68.63 -135.13)"/><path d="M541.2,826.59h13.2v6.3h0.2c2.9-5.3,7.9-7.7,13.7-7.7,8.6,0,13.7,4.7,13.7,15.3v39.9H568.2V843.3c0-5.4-1.8-7.5-5.9-7.5-4.7,0-7.3,2.9-7.3,8.9v35.7H541.2v-53.8Z" transform="translate(-68.63 -135.13)"/><path d="M594.2,811.19H608v15.4h8V836h-8v29.1c0,4.2.9,5.9,4.9,5.9a28.59,28.59,0,0,0,3.1-.2v9.6a86.84,86.84,0,0,1-9,.6c-10.8,0-12.8-3.3-12.8-14.2V836h-7v-9.4h7v-15.4Z" transform="translate(-68.63 -135.13)"/><path class="cls-1" d="M341,255.13a30.1,30.1,0,0,0-4.35.32,118.79,118.79,0,0,0-11.91-28.16,29.87,29.87,0,1,0-41.51-42.13,118.8,118.8,0,0,0-31.55-13.31,29.87,29.87,0,1,0-59.4-.24,118.77,118.77,0,0,0-31.92,13.2,29.87,29.87,0,1,0-41.83,42,118.8,118.8,0,0,0-12.18,28.62,29.87,29.87,0,1,0-1.24,59.27A118.74,118.74,0,0,0,118.43,348a29.87,29.87,0,1,0,41.51,41.94,118.79,118.79,0,0,0,32.46,13.48,29.87,29.87,0,1,0,59.15-.24,118.77,118.77,0,0,0,30.72-12.78,29.87,29.87,0,1,0,41.94-41.82,118.75,118.75,0,0,0,13.66-33.87,30.2,30.2,0,0,0,3.12.16A29.88,29.88,0,0,0,341,255.13Z" transform="translate(-68.63 -135.13)"/><circle class="cls-1" cx="153.38" cy="34.38" r="29.88"/><circle class="cls-1" cx="153.38" cy="273.38" r="29.88"/><circle class="cls-1" cx="272.38" cy="150.88" r="29.88"/><circle class="cls-1" cx="33.38" cy="150.88" r="29.88"/><circle class="cls-1" cx="238.38" cy="69.13" r="29.88"/><circle class="cls-1" cx="68.25" cy="69.13" r="29.88"/><circle class="cls-1" cx="237.38" cy="238.13" r="29.88"/><circle class="cls-1" cx="67.25" cy="238.13" r="29.88"/><circle cx="152.88" cy="152.38" r="65.73"/></svg>