<svg id="Realtime_Crime" data-name="Realtime Crime" xmlns="http://www.w3.org/2000/svg" viewBox="0 0 663.79 496.31"><defs><style>.cls-1{fill:none;stroke:#000;stroke-miterlimit:10;stroke-width:7px;}</style></defs><title>rubiksCubeText_realtimeCrime</title><path d="M103,479h26.6c11.8,0,19,6.2,19,18.4,0,9.5-3.8,15.9-11.9,17.6v0.2c9.8,1.3,11.3,6.7,11.5,21.8,0.1,7.5.5,11.4,3.2,12.8v0.6H135.8c-1.4-2-1.7-4.7-1.8-7.5l-0.4-13.7c-0.2-5.6-2.7-9-8.5-9h-7.7v30.2H103V479Zm14.4,31.2h6c6.9,0,10.8-3,10.8-10.7,0-6.6-3.5-9.9-10-9.9h-6.8v20.6Z" transform="translate(-98.5 -165.5)"/><path d="M170,525.6v4.3c0,6.3,1.7,12.5,6.8,12.5,4.6,0,6.5-3.5,7.3-10.1h12.4c-0.5,12.5-6.5,19.5-19.5,19.5-20,0-20.8-15.4-20.8-28.8,0-14.4,2.8-27.8,21.4-27.8,16.1,0,19.7,10.8,19.7,27.3v3.1H170Zm14.1-8.2c-0.3-8.2-1.3-12.8-7-12.8-5.5,0-7.1,5.7-7.1,10.7v2.1h14.1Z" transform="translate(-98.5 -165.5)"/><path d="M204.4,513.1v-1.3c0-12.4,8.5-16.6,18.9-16.6,16.4,0,19.5,6.8,19.5,16.5V540c0,5,.3,7.3,1.7,10.4H231.3a22.6,22.6,0,0,1-1.7-5.6h-0.2c-3.2,5.6-7.1,7-13.7,7-9.6,0-13-8.2-13-15.4,0-10.1,4.1-14.2,13.6-16.8l7.8-2.1c4.1-1.1,5.5-2.7,5.5-6.3,0-4.1-1.8-6.6-6.4-6.6-4.2,0-6.4,2.8-6.4,7v1.5H204.4Zm25.2,10.4a17.06,17.06,0,0,1-5.9,2.7c-5.6,1.2-7.8,3.9-7.8,8.7,0,4.1,1.5,7.5,5.2,7.5s8.5-2.4,8.5-8.3V523.5Z" transform="translate(-98.5 -165.5)"/><path d="M253.1,479h13.8v71.4H253.1V479Z" transform="translate(-98.5 -165.5)"/><path d="M279.6,481.19h13.8v15.4h8V506h-8v29.1c0,4.2.9,5.9,4.9,5.9a28.62,28.62,0,0,0,3.1-.2v9.6a86.57,86.57,0,0,1-9,.6c-10.8,0-12.8-3.3-12.8-14.2V506h-7v-9.4h7v-15.4Z" transform="translate(-98.5 -165.5)"/><path d="M306.7,478.19h13.8V490H306.7v-11.8Zm0,18.4h13.8v53.8H306.7V496.6Z" transform="translate(-98.5 -165.5)"/><path d="M330.2,496.6h13.2v5.5h0.2c3.5-4.9,7.8-6.9,13.6-6.9,6.3,0,10.9,3.1,12.4,8.6h0.2c2.1-5.7,7.1-8.6,13.6-8.6,9.1,0,13.4,5.7,13.4,16.1v39.1H383V512.8c0-4.5-1.5-7-5.4-7-4.4,0-7.2,3-7.2,9.2v35.4H356.6V512.8c0-4.5-1.5-7-5.4-7-4.4,0-7.2,3-7.2,9.2v35.4H330.2V496.6Z" transform="translate(-98.5 -165.5)"/><path d="M417.8,525.6v4.3c0,6.3,1.7,12.5,6.8,12.5,4.6,0,6.5-3.5,7.3-10.1h12.4c-0.5,12.5-6.5,19.5-19.5,19.5-20,0-20.8-15.4-20.8-28.8,0-14.4,2.8-27.8,21.4-27.8,16.1,0,19.7,10.8,19.7,27.3v3.1H417.8Zm14.1-8.2c-0.3-8.2-1.3-12.8-7-12.8-5.5,0-7.1,5.7-7.1,10.7v2.1h14.1Z" transform="translate(-98.5 -165.5)"/><path d="M507.2,503.1c0-10.4-2.1-14.9-8.6-14.9-7.3,0-9,7.3-9,27.5,0,21.6,3,25.5,9.2,25.5,5.2,0,9-2.7,9-18.1h14.4c0,15.4-3.8,28.7-22.7,28.7-21.6,0-24.3-15.4-24.3-37.1s2.7-37.1,24.3-37.1c20.6,0,22.1,15.1,22.1,25.5H507.2Z" transform="translate(-98.5 -165.5)"/><path d="M530,496.6h13.2v7.2h0.2c2.8-5.2,6.7-8.6,12.4-8.6a21,21,0,0,1,2.5.2v13.2c-1.4-.1-2.9-0.2-4.3-0.2-4.8,0-10.2,2.5-10.2,9.7v32.3H530V496.6Z" transform="translate(-98.5 -165.5)"/><path d="M563.79,478.19h13.8V490h-13.8v-11.8Zm0,18.4h13.8v53.8h-13.8V496.6Z" transform="translate(-98.5 -165.5)"/><path d="M587.29,496.6h13.2v5.5h0.2c3.5-4.9,7.8-6.9,13.6-6.9,6.3,0,10.9,3.1,12.4,8.6h0.2c2.1-5.7,7.1-8.6,13.6-8.6,9.1,0,13.4,5.7,13.4,16.1v39.1h-13.8V512.8c0-4.5-1.5-7-5.4-7-4.4,0-7.2,3-7.2,9.2v35.4h-13.8V512.8c0-4.5-1.5-7-5.4-7-4.4,0-7.2,3-7.2,9.2v35.4h-13.8V496.6Z" transform="translate(-98.5 -165.5)"/><path d="M674.89,525.6v4.3c0,6.3,1.7,12.5,6.8,12.5,4.6,0,6.5-3.5,7.3-10.1h12.4c-0.5,12.5-6.5,19.5-19.5,19.5-20,0-20.8-15.4-20.8-28.8,0-14.4,2.8-27.8,21.4-27.8,16.1,0,19.7,10.8,19.7,27.3v3.1h-27.3Zm14.1-8.2c-0.3-8.2-1.3-12.8-7-12.8-5.5,0-7.1,5.7-7.1,10.7v2.1H689Z" transform="translate(-98.5 -165.5)"/><path d="M751.09,477.59h11.2l-22.6,74.2h-11.2Z" transform="translate(-98.5 -165.5)"/><path d="M103,589h39.9v11.8H117.4v16.8h24v11.8h-24v31H103V589Z" transform="translate(-98.5 -165.5)"/><path d="M176.5,654.1h-0.2c-2.9,5.3-7.9,7.7-13.7,7.7-8.6,0-13.7-4.7-13.7-15.3V606.6h13.8v37.1c0,5.4,1.8,7.5,5.9,7.5,4.7,0,7.3-2.9,7.3-8.9V606.6h13.8v53.8H176.5v-6.3Z" transform="translate(-98.5 -165.5)"/><path d="M209,642.8v1.8c0,4.7,2.5,7.8,7.2,7.8,4.2,0,7-2.1,7-6.4,0-3.5-2.3-5.1-5-6.1l-9.7-3.5c-7.6-2.7-11.5-7.4-11.5-15,0-8.9,5.6-16.2,19.8-16.2,12.5,0,18.4,5.6,18.4,15.3v2.2H222.8c0-5.4-1.6-8.1-6.1-8.1-3.5,0-6.5,2-6.5,5.8,0,2.6,1.4,4.8,6,6.3l8.3,2.8c8.7,2.9,11.9,7.3,11.9,15.4,0,11.3-8.4,16.9-20,16.9-15.5,0-19.8-6.8-19.8-17.1v-1.9H209Z" transform="translate(-98.5 -165.5)"/><path d="M243.8,588.19h13.8V600H243.8v-11.8Zm0,18.4h13.8v53.8H243.8V606.6Z" transform="translate(-98.5 -165.5)"/><path d="M286.7,605.2c16.6-.3,21.2,9.6,21.2,28.3,0,18.4-5.4,28.3-21.2,28.3-16.6.3-21.2-9.6-21.2-28.3C265.5,615.1,270.9,605.2,286.7,605.2Zm0,47.2c5.6,0,7.4-5.5,7.4-18.9s-1.8-18.9-7.4-18.9c-6.8,0-7.4,7.9-7.4,18.9S279.9,652.4,286.7,652.4Z" transform="translate(-98.5 -165.5)"/><path d="M315.3,606.6h13.2v6.3h0.2c2.9-5.3,7.9-7.7,13.7-7.7,8.6,0,13.7,4.7,13.7,15.3v39.9H342.3V623.3c0-5.4-1.8-7.5-5.9-7.5-4.7,0-7.3,2.9-7.3,8.9v35.7H315.3V606.6Z" transform="translate(-98.5 -165.5)"/><path d="M420.2,613.1c0-10.4-2.1-14.9-8.6-14.9-7.3,0-9,7.3-9,27.5,0,21.6,3,25.5,9.2,25.5,5.2,0,9-2.7,9-18.1h14.4c0,15.4-3.8,28.7-22.7,28.7-21.6,0-24.3-15.4-24.3-37.1s2.7-37.1,24.3-37.1c20.6,0,22.1,15.1,22.1,25.5H420.2Z" transform="translate(-98.5 -165.5)"/><path d="M454.8,635.6v4.3c0,6.3,1.7,12.5,6.8,12.5,4.6,0,6.5-3.5,7.3-10.1h12.4c-0.5,12.5-6.5,19.5-19.5,19.5-20,0-20.8-15.4-20.8-28.8,0-14.4,2.8-27.8,21.4-27.8,16.1,0,19.7,10.8,19.7,27.3v3.1H454.8Zm14.1-8.2c-0.3-8.2-1.3-12.8-7-12.8-5.5,0-7.1,5.7-7.1,10.7v2.1h14.1Z" transform="translate(-98.5 -165.5)"/><path d="M489.29,606.6h13.2v6.3h0.2c2.9-5.3,7.9-7.7,13.7-7.7,8.6,0,13.7,4.7,13.7,15.3v39.9H516.3V623.3c0-5.4-1.8-7.5-5.9-7.5-4.7,0-7.3,2.9-7.3,8.9v35.7h-13.8V606.6Z" transform="translate(-98.5 -165.5)"/><path d="M542.29,591.2h13.8v15.4h8V616h-8v29.1c0,4.2.9,5.9,4.9,5.9a28.61,28.61,0,0,0,3.1-.2v9.6a86.56,86.56,0,0,1-9,.6c-10.8,0-12.8-3.3-12.8-14.2V616h-7v-9.4h7V591.2Z" transform="translate(-98.5 -165.5)"/><path d="M580.69,635.6v4.3c0,6.3,1.7,12.5,6.8,12.5,4.6,0,6.5-3.5,7.3-10.1h12.4c-0.5,12.5-6.5,19.5-19.5,19.5-20,0-20.8-15.4-20.8-28.8,0-14.4,2.8-27.8,21.4-27.8,16.1,0,19.7,10.8,19.7,27.3v3.1h-27.3Zm14.1-8.2c-0.3-8.2-1.3-12.8-7-12.8-5.5,0-7.1,5.7-7.1,10.7v2.1h14.1Z" transform="translate(-98.5 -165.5)"/><path d="M615.19,606.6h13.2v7.2h0.2c2.8-5.2,6.7-8.6,12.4-8.6a21,21,0,0,1,2.5.2v13.2c-1.4-.1-2.9-0.2-4.3-0.2-4.8,0-10.2,2.5-10.2,9.7v32.3h-13.8V606.6Z" transform="translate(-98.5 -165.5)"/><circle class="cls-1" cx="123" cy="123" r="119.5"/><polygon points="122.5 43.03 147.44 100.55 199.98 99.33 153.57 131.32 170.39 190.41 122.5 150.38 74.61 190.41 90 132.09 45.02 99.33 99.56 100.55 122.5 43.03"/><circle cx="122.65" cy="39.79" r="12.09"/><circle cx="203.14" cy="99.22" r="12.09"/><circle cx="41.7" cy="99.22" r="12.09"/><circle cx="174.26" cy="195.03" r="12.09"/><circle cx="73.44" cy="195.03" r="12.09"/></svg>